<?xml version="1.0" encoding="UTF-8"?>
<svg id="Group_1" data-name="Group 1" xmlns="http://www.w3.org/2000/svg" viewBox="0 0 2211.95 425.04">
  <defs>
    <style>
      .cls-1 {
        fill: #cff7cc;
      }

      .cls-1, .cls-2, .cls-3, .cls-4, .cls-5, .cls-6 {
        stroke-width: 0px;
      }

      .cls-2 {
        fill: #b9e6fd;
      }

      .cls-3 {
        fill: #fecace;
      }

      .cls-4 {
        fill: #fff67a;
      }

      .cls-5 {
        fill: #fff;
      }

      .cls-6 {
        fill: #f0cefe;
      }
    </style>
  </defs>
  <g id="nakanoista">
    <g>
      <path class="cls-5" d="M658.8,310.36l-112.79-133.23v133.23h-28.77v-168.05l-17.79-20.82h40.88l105.98,126.42v-126.42h28.39v188.87h-15.9Z"/>
      <path class="cls-5" d="M843.54,310.36l-18.55-44.66h-77.21l-18.92,44.66h-30.66l75.7-168.43-8.71-20.44h33.69l78.73,188.87h-34.06ZM787.52,173.35l-30.28,70.02h58.67l-28.39-70.02Z"/>
      <path class="cls-5" d="M904.14,310.36V121.49h31.79v188.87h-31.79ZM1024.5,310.36l-85.16-94.62,81-94.24h34.82l-79.86,89.32,90.08,99.54h-40.88Z"/>
      <path class="cls-5" d="M1217.19,310.36l-18.55-44.66h-77.21l-18.92,44.66h-30.66l75.7-168.43-8.71-20.44h33.69l78.73,188.87h-34.06ZM1161.17,173.35l-30.28,70.02h58.67l-28.39-70.02Z"/>
      <path class="cls-5" d="M1419.34,310.36l-112.79-133.23v133.23h-28.76v-168.05l-17.79-20.82h40.88l105.98,126.42v-126.42h28.39v188.87h-15.9Z"/>
      <path class="cls-5" d="M1565.29,314.53c-55.64,0-94.62-40.88-94.62-98.79s39.74-98.41,94.62-98.41,94.62,40.88,94.62,98.41-38.98,98.79-94.62,98.79ZM1565.29,143.07c-38.23,0-60.94,31.04-60.94,72.67s22.71,72.67,60.94,72.67,60.94-30.66,60.94-72.67-22.71-72.67-60.94-72.67Z"/>
      <path class="cls-5" d="M1697.16,310.36V121.49h31.79v188.87h-31.79Z"/>
      <path class="cls-5" d="M1825.28,314.15c-19.68,0-37.09-3.79-52.99-9.08l-5.3-36.71c17.03,11.73,33.69,20.44,56.4,20.44,18.92,0,37.85-10.6,37.85-26.49,0-13.25-11.73-23.09-21.2-27.25l-27.63-11.73c-29.9-12.49-39.74-31.04-39.74-49.58,0-34.06,29.14-55.64,71.91-55.64,17.79,0,38.61,6.81,47.31,12.11v34.06c-12.49-11.73-28.01-21.2-47.31-21.2-20.82,0-40.5,9.46-40.5,27.25,0,11.73,10.98,19.3,20.82,23.85l31.79,14.38c15.9,7.19,37.47,20.82,37.47,51.1,0,32.93-29.14,54.5-68.89,54.5Z"/>
      <path class="cls-5" d="M2047.91,147.23h-52.99v163.13h-31.79v-163.13h-52.23v-25.74h147.23l-10.22,25.74Z"/>
      <path class="cls-5" d="M2175.61,310.36l-18.55-44.66h-77.21l-18.92,44.66h-30.66l75.7-168.43-8.71-20.44h33.69l78.73,188.87h-34.06ZM2119.6,173.35l-30.28,70.02h58.67l-28.39-70.02Z"/>
    </g>
  </g>
  <g id="nakanoista_copy" data-name="nakanoista copy">
    <g>
      <path class="cls-5" d="M658.8,310.36l-112.79-133.23v133.23h-28.77v-168.05l-17.79-20.82h40.88l105.98,126.42v-126.42h28.39v188.87h-15.9Z"/>
      <path class="cls-5" d="M843.54,310.36l-18.55-44.66h-77.21l-18.92,44.66h-30.66l75.7-168.43-8.71-20.44h33.69l78.73,188.87h-34.06ZM787.52,173.35l-30.28,70.02h58.67l-28.39-70.02Z"/>
      <path class="cls-5" d="M904.14,310.36V121.49h31.79v188.87h-31.79ZM1024.5,310.36l-85.16-94.62,81-94.24h34.82l-79.86,89.32,90.08,99.54h-40.88Z"/>
      <path class="cls-5" d="M1217.19,310.36l-18.55-44.66h-77.21l-18.92,44.66h-30.66l75.7-168.43-8.71-20.44h33.69l78.73,188.87h-34.06ZM1161.17,173.35l-30.28,70.02h58.67l-28.39-70.02Z"/>
      <path class="cls-5" d="M1419.34,310.36l-112.79-133.23v133.23h-28.76v-168.05l-17.79-20.82h40.88l105.98,126.42v-126.42h28.39v188.87h-15.9Z"/>
      <path class="cls-5" d="M1565.29,314.53c-55.64,0-94.62-40.88-94.62-98.79s39.74-98.41,94.62-98.41,94.62,40.88,94.62,98.41-38.98,98.79-94.62,98.79ZM1565.29,143.07c-38.23,0-60.94,31.04-60.94,72.67s22.71,72.67,60.94,72.67,60.94-30.66,60.94-72.67-22.71-72.67-60.94-72.67Z"/>
      <path class="cls-5" d="M1697.16,310.36V121.49h31.79v188.87h-31.79Z"/>
      <path class="cls-5" d="M1825.28,314.15c-19.68,0-37.09-3.79-52.99-9.08l-5.3-36.71c17.03,11.73,33.69,20.44,56.4,20.44,18.92,0,37.85-10.6,37.85-26.49,0-13.25-11.73-23.09-21.2-27.25l-27.63-11.73c-29.9-12.49-39.74-31.04-39.74-49.58,0-34.06,29.14-55.64,71.91-55.64,17.79,0,38.61,6.81,47.31,12.11v34.06c-12.49-11.73-28.01-21.2-47.31-21.2-20.82,0-40.5,9.46-40.5,27.25,0,11.73,10.98,19.3,20.82,23.85l31.79,14.38c15.9,7.19,37.47,20.82,37.47,51.1,0,32.93-29.14,54.5-68.89,54.5Z"/>
      <path class="cls-5" d="M2047.91,147.23h-52.99v163.13h-31.79v-163.13h-52.23v-25.74h147.23l-10.22,25.74Z"/>
      <path class="cls-5" d="M2175.61,310.36l-18.55-44.66h-77.21l-18.92,44.66h-30.66l75.7-168.43-8.71-20.44h33.69l78.73,188.87h-34.06ZM2119.6,173.35l-30.28,70.02h58.67l-28.39-70.02Z"/>
    </g>
  </g>
  <g id="Flower_Subtracted_Stem" data-name="Flower Subtracted Stem">
    <path class="cls-3" d="M196.75,242.38c-.3-.46-.58-.93-.85-1.41l-41.18,16.07c.44,4.08-1.87,8.11-5.87,9.67-4.8,1.87-10.2-.5-12.07-5.3-1.87-4.8.5-10.2,5.3-12.07,4.01-1.56,8.43-.16,10.87,3.14l40.89-15.95c-1.1-3.02-1.71-6.27-1.71-9.66,0-1.59.13-3.14.38-4.65l-43.89-5.82c-1.59,3.78-5.55,6.2-9.81,5.64-5.1-.68-8.69-5.36-8.02-10.47.68-5.1,5.36-8.69,10.47-8.02,4.26.57,7.46,3.93,8.01,8l44.48,5.9c.31-.88.66-1.73,1.05-2.57-15.25-6.61-25.23-14.74-27.7-16.81-6.77-5.65-23.45-19.95-30.71-43.17-2.56-8.18-3.48-15.98-3.9-19.64-1.01-8.86-.93-16.76-.41-23.35-12.75-3.56-37.01-8.51-64.57-4.64-21.67,3.04-33.29,9.85-37.92,12.83-1.56,1.01-8.03,3.77-12.7,10.17-2.8,3.84-3.21,6.43-3.21,8.09,0,3.3,1.57,5.7,2.85,7.68,2.99,4.59,6.2,9.67,10.25,16.15-2.9,1.12-7.15,2.81-12.22,5.03-10.56,4.62-11.76,5.85-12.48,6.82-4.19,5.66-1.14,14.59,1.57,21.62.89,2.3,4.66,11.75,16.44,25.99,3.3,3.99,7.57,9.12,14.01,14.94,12.86,11.64,24.96,17.57,37.36,23.52,7.37,3.54,17.5,8.34,31.7,12.02,8.46,2.19,16.66,4.25,27.65,3.69,8.99-.46,15.61-2.45,20.03-3.82,22.57-6.96,36.67-20.34,40.14-23.75,1.97-1.94,3.91-3.86,5.78-5.84Z"/>
    <path class="cls-1" d="M229.78,253.63c-1.16.4-2.37.71-3.59.97l2.53,43.7c4.02.85,7.14,4.28,7.39,8.58.3,5.14-3.63,9.55-8.77,9.85-5.14.3-9.55-3.63-9.85-8.77-.25-4.29,2.45-8.07,6.35-9.37l-2.51-43.42c-.29,0-.57.04-.86.04-4.82,0-9.35-1.21-13.32-3.33l-18.97,39.67c3.11,2.68,4.18,7.19,2.33,11.08-2.22,4.65-7.79,6.61-12.43,4.39-4.65-2.22-6.61-7.79-4.39-12.43,1.86-3.88,6.04-5.88,10.08-5.14l19.25-40.26c-.39-.3-.77-.62-1.14-.94-10.6,11.67-20.78,18.23-23.41,19.88-7.47,4.69-26.21,16.14-50.55,15.87-8.57-.09-16.28-1.63-19.88-2.36-8.74-1.77-16.23-4.3-22.34-6.82-7.32,11.02-19.53,32.57-24.37,59.98-3.8,21.55-.92,34.7.48,40.03.48,1.8,1.1,8.8,5.75,15.22,2.78,3.85,5.13,5.04,6.7,5.55,3.14,1.03,5.91.27,8.18-.34,5.29-1.42,11.11-2.91,18.53-4.76.17,3.11.47,7.66,1.01,13.17,1.13,11.47,1.93,12.99,2.63,13.97,4.08,5.73,13.52,5.59,21.04,5.19,2.46-.13,12.61-.8,29.8-7.6,4.82-1.91,11.01-4.39,18.54-8.7,15.05-8.64,24.42-18.31,33.91-28.26,5.64-5.92,13.34-14.07,21.22-26.43,4.7-7.37,9.19-14.54,12.05-25.16,2.34-8.7,2.49-15.6,2.56-20.23.35-23.61-8.01-41.16-10.19-45.52-1.23-2.46-2.45-4.89-3.75-7.28Z"/>
    <path class="cls-2" d="M381.29,346.35c-.32-5.17-.77-11.83-2.55-20.32-3.56-16.98-9.87-28.88-16.4-40.99-3.88-7.2-9.26-17.03-18.58-28.35-5.56-6.75-10.98-13.23-20.2-19.24-7.55-4.92-14.07-7.19-18.45-8.69-22.35-7.63-41.62-5.1-46.44-4.38-3.33.5-6.62,1-9.88,1.68,0,.27.02.53.02.8,0,.65-.03,1.29-.07,1.92l43.45,12.29c2.11-3.52,6.38-5.34,10.52-4.17,4.95,1.4,7.83,6.55,6.43,11.51-1.4,4.95-6.55,7.84-11.51,6.43-4.14-1.17-6.82-4.96-6.78-9.06l-42.88-12.13c-1.17,4.76-3.55,9.05-6.79,12.52l31.39,31.03c3.55-2.06,8.17-1.6,11.23,1.43,3.66,3.62,3.7,9.52.08,13.18-3.62,3.66-9.52,3.7-13.18.08-3.06-3.02-3.58-7.64-1.56-11.21l-31.59-31.22c-.32.24-.64.48-.96.71,8,13.87,11.15,25.79,11.91,28.84,2.15,8.55,7.25,29.92-.53,52.98-2.74,8.12-6.58,14.98-8.39,18.18-4.39,7.76-9.1,14.1-13.39,19.13,8.22,10.37,24.94,28.64,49.51,41.71,19.32,10.27,32.72,11.6,38.22,11.91,1.86.1,8.71,1.67,16.25-.76,4.52-1.46,6.37-3.32,7.35-4.66,1.95-2.66,2.08-5.53,2.2-7.89.29-5.47.67-11.46,1.2-19.09,3.01.8,7.43,1.92,12.84,3.11,11.26,2.47,12.96,2.18,14.1,1.82,6.71-2.11,9.5-11.13,11.44-18.41.64-2.38,3.13-12.24,1.97-30.69Z"/>
    <path class="cls-6" d="M439.15,174.48c-1.93-2.67-4.62-3.69-6.82-4.53-5.12-1.96-10.7-4.18-17.79-7.04,1.69-2.62,4.13-6.48,6.93-11.25,5.83-9.94,6.07-11.65,6.09-12.85.07-7.04-7.65-12.47-13.97-16.57-2.07-1.34-10.68-6.76-28.57-11.36-5.02-1.29-11.49-2.92-20.11-3.85-17.25-1.86-30.52.46-44.05,2.93-8.04,1.47-19.06,3.54-32.71,8.91-8.13,3.2-15.98,6.36-24.54,13.27-7.01,5.66-11.19,11.16-13.96,14.86-14.17,18.9-17.72,38.01-18.51,42.81-.57,3.43-1.13,6.81-1.49,10.23.6.2,1.18.43,1.76.67l25.08-37.47c-2.69-3.1-3.11-7.72-.72-11.29,2.86-4.28,8.65-5.43,12.93-2.56,4.28,2.86,5.43,8.65,2.56,12.93-2.39,3.57-6.82,4.95-10.71,3.64l-24.79,37.03c4.03,2.59,7.36,6.18,9.65,10.41l39.38-20.35c-.86-4.01,1.01-8.26,4.83-10.24,4.57-2.36,10.2-.57,12.56,4,2.36,4.57.57,10.2-4,12.56-3.82,1.98-8.37,1.04-11.14-1.98l-39.67,20.51c.12.37.25.73.36,1.11,16.2-3.6,29.02-2.88,32.22-2.66,8.8.6,30.69,2.35,50.23,16.88,6.88,5.12,12.21,10.88,14.7,13.59,6.03,6.57,10.6,13.01,14.06,18.65,12.4-4.62,34.95-14.87,54.97-34.2,15.74-15.2,21.14-27.53,23.13-32.67.67-1.73,4.28-7.77,4.3-15.69.01-4.75-1.19-7.09-2.16-8.43Z"/>
    <path class="cls-4" d="M144.99,155.9c3.21,8.41,7.15,14.09,9.82,17.87,13.6,19.31,30.67,28.59,35,30.84,2.9,1.5,5.76,2.99,8.7,4.32.1-.12.2-.23.3-.35l-28.16-35.78c-3.78,1.6-8.3.57-10.96-2.81-3.18-4.05-2.49-9.91,1.56-13.09,4.05-3.18,9.91-2.49,13.09,1.56,2.66,3.38,2.6,8.02.16,11.32l27.81,35.33c3.58-3,7.91-5.12,12.67-6.06l-7.23-43.95c-4.08-.42-7.55-3.51-8.24-7.75-.84-5.08,2.61-9.88,7.69-10.71,5.08-.84,9.88,2.61,10.71,7.69.7,4.24-1.59,8.28-5.33,9.98l7.27,44.22c.21,0,.42-.02.63-.02.73,0,1.46.04,2.18.09,1.51-16.9,6.28-29.18,7.49-32.21,3.29-8.18,11.72-28.46,31.57-42.55,6.99-4.96,14.12-8.25,17.47-9.78,8.11-3.7,15.65-6.06,22.08-7.61-.56-13.22-3.34-37.83-15.54-62.85-9.59-19.67-19.65-28.62-23.92-32.1-1.44-1.18-6.06-6.47-13.59-8.94-4.51-1.48-7.11-1.06-8.69-.55-3.14,1.01-4.94,3.25-6.42,5.08-3.45,4.26-7.28,8.88-12.19,14.74-1.96-2.42-4.88-5.93-8.56-10.07-7.66-8.62-9.2-9.38-10.34-9.76-6.67-2.24-14.22,3.42-20.08,8.17-1.91,1.55-9.73,8.06-19.63,23.67-2.78,4.37-6.33,10.02-9.88,17.94-7.1,15.83-8.99,29.17-10.82,42.8-1.09,8.1-2.52,19.22-1.63,33.86.53,8.72,1.11,17.16,5.04,27.44Z"/>
  </g>
</svg>